<svg id="Warstwa_1" data-name="Warstwa 1" xmlns="http://www.w3.org/2000/svg" width="309.23" height="123.06" viewBox="0 0 309.23 123.06"><defs><style>.cls-1{fill:#bb1753;}.cls-2{fill:#192a40;}</style></defs><path class="cls-1" d="M151.58,164.12a53.9,53.9,0,1,1-34.74-71.29l1.25.38.77.26a53.76,53.76,0,0,1,32.29,29.88l6.41-14.2h-5.27a61.55,61.55,0,1,0-.38,70h6.47Z" transform="translate(-40.03 -82.38)"/><polygon class="cls-2" points="75.16 86.61 52.48 86.61 38.19 65.17 65.27 65.17 65.27 69.96 80.11 60.06 65.27 50.87 65.27 56.37 38.19 56.37 52.48 34.93 75.16 34.93 75.16 40.98 90.01 31.08 75.16 21.9 75.16 27.23 48.37 27.23 26.01 60.77 48.37 94.3 75.16 94.3 75.16 100.35 90.01 90.45 75.16 81.27 75.16 86.61"/><path class="cls-2" d="M143.27,127.15l8.78,19.09,8.8-19.09h6.6L152,158.79l-15.38-31.64Z" transform="translate(-40.03 -82.38)"/><path class="cls-2" d="M202.19,143.42H178.83a10.55,10.55,0,0,0,2.61,7.11,8.34,8.34,0,0,0,6.63,3,8.76,8.76,0,0,0,5.25-1.48,15,15,0,0,0,3.88-4.48l5,2.8A15.88,15.88,0,0,1,188,158.8a14.83,14.83,0,0,1-7.94-2.11,14.13,14.13,0,0,1-5.27-5.77,18,18,0,0,1-1.84-8.2,20.41,20.41,0,0,1,1.67-8.46,13.16,13.16,0,0,1,5.09-5.87,16.76,16.76,0,0,1,14.48-.9,11.84,11.84,0,0,1,4.45,3.44,14.83,14.83,0,0,1,2.63,5.18,21,21,0,0,1,.67,3.07,23.51,23.51,0,0,1,.23,3.35Zm-23-4.44h17.13a9.18,9.18,0,0,0-2.76-5.56,8.06,8.06,0,0,0-5.7-2.09,8.23,8.23,0,0,0-5.74,2.15A9.37,9.37,0,0,0,179.19,139Z" transform="translate(-40.03 -82.38)"/><path class="cls-2" d="M219.19,127.15v4.12h.13a8.7,8.7,0,0,1,2.3-2.7,11,11,0,0,1,3.21-1.71,11.59,11.59,0,0,1,3.69-.6,11.17,11.17,0,0,1,6.52,1.67,9,9,0,0,1,3.35,4.61,21.85,21.85,0,0,1,1,7v18.25h-5.87V140.23q0-1.56-.09-2.7a13.59,13.59,0,0,0-.35-2.12,5.06,5.06,0,0,0-1.94-2.88,7.28,7.28,0,0,0-4.36-1.07q-3.5,0-5.13,1.74a8.06,8.06,0,0,0-2.1,4.22c-.1.75-.19,1.66-.25,2.73s-.1,2.25-.1,3.52v14.07h-5.87V127.15Z" transform="translate(-40.03 -82.38)"/><path class="cls-2" d="M259.11,132.64v25.1h-5.87v-25.1H250v-5.49h3.22V115.48h5.87v11.67h5.74v5.49Z" transform="translate(-40.03 -82.38)"/><path class="cls-2" d="M280,127.15v5h.2a9.29,9.29,0,0,1,3.28-4.31,8.56,8.56,0,0,1,5.07-1.56,8.83,8.83,0,0,1,4.85,1.5l-2.68,5.36a5.29,5.29,0,0,0-3.6-1.25,6.17,6.17,0,0,0-4.52,1.56,7.69,7.69,0,0,0-2.09,3.86,25.31,25.31,0,0,0-.51,5.43v15h-5.87V127.15Z" transform="translate(-40.03 -82.38)"/><path class="cls-2" d="M308.91,127.15v30.59H303V127.15Z" transform="translate(-40.03 -82.38)"/><path class="cls-2" d="M329.16,141.15l-11-14h6.93l7.26,9.88,7.88-9.88h7.12l-11.23,14,13.11,16.59h-6.87l-10-12.39-9.71,12.41-7.17,0Z" transform="translate(-40.03 -82.38)"/><path class="cls-2" d="M306,113.45a4,4,0,0,1,3,1.25,4.18,4.18,0,0,1,1.23,3,4,4,0,0,1-1.25,3,4.12,4.12,0,0,1-3,1.22,4.19,4.19,0,0,1-3-1.21,3.94,3.94,0,0,1-1.26-3,4.16,4.16,0,0,1,1.25-3A4,4,0,0,1,306,113.45Z" transform="translate(-40.03 -82.38)"/><path class="cls-1" d="M319.65,170.41a1.88,1.88,0,0,0-1.65,1,4.62,4.62,0,0,0-.62,2.55,4.54,4.54,0,0,0,.62,2.55,1.87,1.87,0,0,0,1.65.95,1.85,1.85,0,0,0,1.63-.95,4.54,4.54,0,0,0,.62-2.55,4.6,4.6,0,0,0-.62-2.56A1.86,1.86,0,0,0,319.65,170.41Z" transform="translate(-40.03 -82.38)"/><path class="cls-1" d="M278.66,170.29A2,2,0,0,0,277,171a3.22,3.22,0,0,0-.66,2H281a3.57,3.57,0,0,0-.73-2A2,2,0,0,0,278.66,170.29Z" transform="translate(-40.03 -82.38)"/><path class="cls-1" d="M253.24,162v21.11h90.18a5.45,5.45,0,0,0,5.45-5.45V162Zm18.06,16.71h-1.62c0-.35,0-.7.08-1.06s.08-.73.13-1.12a5.44,5.44,0,0,1-1.5,1.82,3,3,0,0,1-1.79.62,3.14,3.14,0,0,1-2.65-1.38,6,6,0,0,1-1-3.65,6.9,6.9,0,0,1,.36-2.3,4.56,4.56,0,0,1,1.07-1.73,3.69,3.69,0,0,1,1.06-.72,3.07,3.07,0,0,1,1.2-.25,3.11,3.11,0,0,1,1.69.52,5.08,5.08,0,0,1,1.46,1.52c-.07-.39-.12-.75-.15-1.09s-.05-.67-.05-1v-3.06h1.73Zm11.41-4.52h-6.37v.15a3.72,3.72,0,0,0,.63,2.3,2.08,2.08,0,0,0,1.76.82,2.27,2.27,0,0,0,1.21-.33,3.6,3.6,0,0,0,1-1.08l1.28.91a4.46,4.46,0,0,1-1.53,1.53,4.17,4.17,0,0,1-2.07.48,3.56,3.56,0,0,1-3-1.37,6.84,6.84,0,0,1,0-7.41,3.87,3.87,0,0,1,5.92,0,6.13,6.13,0,0,1,1.08,3.84Zm7.55,4.52h-1.64l-3.73-9.63h1.9l2.23,6.22c.13.39.23.71.3,1a5.87,5.87,0,0,1,.14.76,6.39,6.39,0,0,1,.15-.79c.08-.28.17-.59.3-.92l2.28-6.26H294Zm11.95-8.27h-1.86v8.27h-1.68v-8.27h-1.92v-1.36h1.92v-3.06h1.68v3.06h1.86Zm9.46,7.16a3.93,3.93,0,0,1-6,0,6.74,6.74,0,0,1,0-7.41,3.93,3.93,0,0,1,6,0,6.74,6.74,0,0,1,0,7.41Zm10.94,0a3.93,3.93,0,0,1-6,0,6.74,6.74,0,0,1,0-7.41,3.93,3.93,0,0,1,6,0,6.74,6.74,0,0,1,0,7.41Zm6.49,1.11h-1.76V165.58h1.76Zm9.66-.56a3.57,3.57,0,0,1-2.46.82,4.77,4.77,0,0,1-2.19-.49,4.11,4.11,0,0,1-1.6-1.41l1.23-1.13a3.46,3.46,0,0,0,1.16,1.13,2.71,2.71,0,0,0,1.42.39,2,2,0,0,0,1.26-.37,1.17,1.17,0,0,0,.49-1,1.08,1.08,0,0,0-.35-.8,3.07,3.07,0,0,0-1.1-.6l-.84-.28a8.79,8.79,0,0,1-1.51-.58,3.08,3.08,0,0,1-1.06-1,2.35,2.35,0,0,1-.33-1.27,2.61,2.61,0,0,1,.87-2,3.11,3.11,0,0,1,2.21-.8,4.25,4.25,0,0,1,1.91.42,4,4,0,0,1,1.45,1.23l-1.24,1.07a3.9,3.9,0,0,0-1-1,2.16,2.16,0,0,0-1.08-.31,1.71,1.71,0,0,0-1.08.32,1,1,0,0,0-.41.82.94.94,0,0,0,.27.68,2.46,2.46,0,0,0,.88.48l.35.11a15.72,15.72,0,0,1,2,.74,3.68,3.68,0,0,1,1.32,1.09,2.63,2.63,0,0,1,.38,1.45A2.8,2.8,0,0,1,338.76,178.18Z" transform="translate(-40.03 -82.38)"/><path class="cls-1" d="M267.17,170.65a2.07,2.07,0,0,0-1.75.91,4,4,0,0,0-.67,2.41,3.92,3.92,0,0,0,.67,2.41,2.06,2.06,0,0,0,1.75.9,2.11,2.11,0,0,0,1.77-.9,4.61,4.61,0,0,0,0-4.82A2.09,2.09,0,0,0,267.17,170.65Z" transform="translate(-40.03 -82.38)"/><path class="cls-1" d="M308.71,170.41a1.87,1.87,0,0,0-1.65,1,4.62,4.62,0,0,0-.62,2.55,4.54,4.54,0,0,0,.62,2.55,1.87,1.87,0,0,0,1.65.95,1.85,1.85,0,0,0,1.63-.95,4.62,4.62,0,0,0,.62-2.55,4.68,4.68,0,0,0-.62-2.56A1.86,1.86,0,0,0,308.71,170.41Z" transform="translate(-40.03 -82.38)"/></svg>